<svg width="26" height="32" viewBox="0 0 26 32" fill="none" xmlns="http://www.w3.org/2000/svg">
<path fill-rule="evenodd" clip-rule="evenodd" d="M13 0.770828C11.2153 0.770828 9.50373 1.47979 8.24177 2.74176C6.9798 4.00372 6.27084 5.71531 6.27084 7.5C6.27084 9.28468 6.9798 10.9963 8.24177 12.2582C9.50373 13.5202 11.2153 14.2292 13 14.2292C14.7847 14.2292 16.4963 13.5202 17.7582 12.2582C19.0202 10.9963 19.7292 9.28468 19.7292 7.5C19.7292 5.71531 19.0202 4.00372 17.7582 2.74176C16.4963 1.47979 14.7847 0.770828 13 0.770828ZM8.39584 7.5C8.39584 6.27889 8.88092 5.10781 9.74437 4.24436C10.6078 3.38091 11.7789 2.89583 13 2.89583C14.2211 2.89583 15.3922 3.38091 16.2556 4.24436C17.1191 5.10781 17.6042 6.27889 17.6042 7.5C17.6042 8.7211 17.1191 9.89218 16.2556 10.7556C15.3922 11.6191 14.2211 12.1042 13 12.1042C11.7789 12.1042 10.6078 11.6191 9.74437 10.7556C8.88092 9.89218 8.39584 8.7211 8.39584 7.5ZM13 16.3542C9.72326 16.3542 6.70292 17.0993 4.46601 18.3573C2.26167 19.5983 0.604175 21.4768 0.604175 23.7917V23.9362C0.602758 25.5823 0.601341 27.6478 2.41326 29.124C3.30434 29.8493 4.55242 30.3664 6.23826 30.7064C7.92692 31.0492 10.1298 31.2292 13 31.2292C15.8702 31.2292 18.0717 31.0492 19.7632 30.7064C21.449 30.3664 22.6957 29.8493 23.5882 29.124C25.4001 27.6478 25.3973 25.5823 25.3958 23.9362V23.7917C25.3958 21.4768 23.7383 19.5983 21.5354 18.3573C19.2971 17.0993 16.2782 16.3542 13 16.3542ZM2.72917 23.7917C2.72917 22.5861 3.61034 21.2771 5.50726 20.2103C7.37159 19.162 10.0179 18.4792 13.0014 18.4792C15.9821 18.4792 18.6284 19.162 20.4928 20.2103C22.3911 21.2771 23.2708 22.5861 23.2708 23.7917C23.2708 25.6447 23.2142 26.6873 22.2452 27.475C21.721 27.9028 20.8427 28.3207 19.341 28.6239C17.8436 28.9271 15.7965 29.1042 13 29.1042C10.2035 29.1042 8.15501 28.9271 6.65901 28.6239C5.15734 28.3207 4.27901 27.9028 3.75484 27.4764C2.78584 26.6873 2.72917 25.6447 2.72917 23.7917Z" fill="black"/>
</svg>
