<svg width="20" height="21" viewBox="0 0 20 21" fill="none" xmlns="http://www.w3.org/2000/svg">
<path fill-rule="evenodd" clip-rule="evenodd" d="M8.58957 0.197998H11.4117C12.8815 0.197992 14.0337 0.197987 14.9542 0.289488C15.8925 0.382752 16.6607 0.576127 17.338 1.01001C18.0472 1.46438 18.6435 2.08777 19.0781 2.82923C19.4931 3.53727 19.6781 4.34045 19.7673 5.32135C19.8548 6.28369 19.8548 7.48828 19.8548 9.02485V10.0476C19.8548 11.1413 19.8548 11.9989 19.8096 12.6916C19.7636 13.3965 19.6685 13.983 19.4536 14.5255C18.9186 15.8757 17.8925 16.9484 16.601 17.5077C15.8632 17.8272 15.0227 17.8981 13.872 17.9189C13.4695 17.9261 13.2146 17.9314 13.0202 17.9539C12.8386 17.975 12.7682 18.0058 12.727 18.0308C12.6836 18.0572 12.6244 18.1054 12.5216 18.2528C12.4103 18.4124 12.2846 18.633 12.0853 18.985L11.5884 19.8627C10.8793 21.1152 9.12199 21.1152 8.41288 19.8627L7.91596 18.985C7.71663 18.633 7.59093 18.4124 7.47968 18.2528C7.37689 18.1054 7.31768 18.0572 7.27423 18.0308C7.23303 18.0058 7.16264 17.975 6.98104 17.9539C6.7867 17.9314 6.53176 17.9261 6.12925 17.9189C4.97858 17.8981 4.13815 17.8272 3.40026 17.5077C2.10876 16.9484 1.08266 15.8757 0.547703 14.5255C0.332778 13.983 0.237689 13.3965 0.19169 12.6916C0.146479 11.9989 0.146482 11.1413 0.146485 10.0476L0.146484 9.02487C0.146479 7.48829 0.146474 6.2837 0.233996 5.32135C0.323206 4.34045 0.508173 3.53727 0.923194 2.82923C1.3578 2.08777 1.9541 1.46438 2.66331 1.01001C3.34057 0.576127 4.10883 0.382752 5.04708 0.289488C5.96759 0.197987 7.1198 0.197992 8.58957 0.197998ZM5.17723 1.72053C4.33962 1.80379 3.80665 1.96347 3.38175 2.23568C2.85754 2.57152 2.41681 3.03229 2.09557 3.58032C1.8352 4.02453 1.68246 4.58174 1.60282 5.45741C1.52221 6.34379 1.52148 7.48015 1.52148 9.06258V10.0209C1.52148 11.1471 1.52186 11.9557 1.5635 12.5938C1.60472 13.2254 1.68408 13.6373 1.81804 13.9754C2.21344 14.9734 2.97186 15.7663 3.92645 16.1796C4.39911 16.3843 5.00212 16.4608 6.15294 16.4816L6.18211 16.4821C6.54694 16.4887 6.86665 16.4944 7.13237 16.5252C7.41791 16.5582 7.69716 16.625 7.96552 16.7882C8.23162 16.95 8.42355 17.1662 8.59087 17.4062C8.74548 17.6279 8.90436 17.9086 9.08432 18.2265L9.59614 19.1305C9.77284 19.4426 10.2284 19.4426 10.4051 19.1305L10.9169 18.2265C11.0969 17.9086 11.2558 17.6279 11.4104 17.4062C11.5777 17.1662 11.7696 16.95 12.0357 16.7882C12.3041 16.625 12.5834 16.5582 12.8689 16.5252C13.1346 16.4944 13.4543 16.4887 13.8192 16.4821L13.8483 16.4816C14.9992 16.4608 15.6022 16.3843 16.0749 16.1796C17.0294 15.7663 17.7879 14.9734 18.1833 13.9754C18.3172 13.6373 18.3966 13.2254 18.4378 12.5938C18.4794 11.9557 18.4798 11.1471 18.4798 10.0209V9.06258C18.4798 7.48015 18.4791 6.34379 18.3985 5.45741C18.3188 4.58174 18.1661 4.02453 17.9057 3.58032C17.5845 3.03229 17.1438 2.57152 16.6196 2.23568C16.1947 1.96347 15.6617 1.80379 14.8241 1.72053C13.9762 1.63626 12.8893 1.6355 11.3757 1.6355H8.62565C7.11202 1.6355 6.02507 1.63626 5.17723 1.72053Z" fill="#282828"/>
<path d="M7.25065 9.54175C7.25065 10.071 6.84025 10.5001 6.33398 10.5001C5.82772 10.5001 5.41732 10.071 5.41732 9.54175C5.41732 9.01248 5.82772 8.58341 6.33398 8.58341C6.84025 8.58341 7.25065 9.01248 7.25065 9.54175Z" fill="#282828"/>
<path d="M10.9173 9.54175C10.9173 10.071 10.5069 10.5001 10.0007 10.5001C9.49439 10.5001 9.08398 10.071 9.08398 9.54175C9.08398 9.01248 9.49439 8.58341 10.0007 8.58341C10.5069 8.58341 10.9173 9.01248 10.9173 9.54175Z" fill="#282828"/>
<path d="M14.584 9.54175C14.584 10.071 14.1736 10.5001 13.6673 10.5001C13.1611 10.5001 12.7507 10.071 12.7507 9.54175C12.7507 9.01248 13.1611 8.58341 13.6673 8.58341C14.1736 8.58341 14.584 9.01248 14.584 9.54175Z" fill="#282828"/>
</svg>
